<mxfile host="65bd71144e">
    <diagram id="NO3sxzDj7jJTj3gvPRsl" name="Data Model">
        <mxGraphModel dx="1047" dy="475" grid="0" gridSize="10" guides="1" tooltips="1" connect="1" arrows="1" fold="1" page="1" pageScale="1" pageWidth="1169" pageHeight="827" math="0" shadow="0">
            <root>
                <mxCell id="0"/>
                <mxCell id="1" parent="0"/>
                <mxCell id="Hn97OW8CmNCbwNy5XYP6-2" style="edgeStyle=none;html=1;endArrow=diamondThin;endFill=0;endSize=18;" parent="1" source="6zOTHCYMn93DbX12q7oU-10" target="Hn97OW8CmNCbwNy5XYP6-1" edge="1">
                    <mxGeometry relative="1" as="geometry"/>
                </mxCell>
                <mxCell id="V5nQ-EOYTLn5Q9zyDMKF-8" value="1" style="edgeLabel;html=1;align=center;verticalAlign=middle;resizable=0;points=[];" parent="Hn97OW8CmNCbwNy5XYP6-2" vertex="1" connectable="0">
                    <mxGeometry x="0.2563" y="2" relative="1" as="geometry">
                        <mxPoint x="27" y="-9" as="offset"/>
                    </mxGeometry>
                </mxCell>
                <mxCell id="V5nQ-EOYTLn5Q9zyDMKF-11" value="*" style="edgeLabel;html=1;align=center;verticalAlign=middle;resizable=0;points=[];" parent="Hn97OW8CmNCbwNy5XYP6-2" vertex="1" connectable="0">
                    <mxGeometry x="-0.645" y="-2" relative="1" as="geometry">
                        <mxPoint x="6" y="4" as="offset"/>
                    </mxGeometry>
                </mxCell>
                <mxCell id="6zOTHCYMn93DbX12q7oU-10" value="Source" style="swimlane;fontStyle=1;align=center;verticalAlign=top;childLayout=stackLayout;horizontal=1;startSize=26;horizontalStack=0;resizeParent=1;resizeParentMax=0;resizeLast=0;collapsible=1;marginBottom=0;" parent="1" vertex="1" collapsed="1">
                    <mxGeometry x="290" y="175" width="102" height="26" as="geometry">
                        <mxRectangle x="57" y="60" width="160" height="34" as="alternateBounds"/>
                    </mxGeometry>
                </mxCell>
                <mxCell id="6zOTHCYMn93DbX12q7oU-50" style="edgeStyle=none;html=1;endArrow=diamondThin;endFill=0;endSize=18;" parent="1" source="6zOTHCYMn93DbX12q7oU-15" target="6zOTHCYMn93DbX12q7oU-10" edge="1">
                    <mxGeometry relative="1" as="geometry"/>
                </mxCell>
                <mxCell id="V5nQ-EOYTLn5Q9zyDMKF-13" value="*" style="edgeLabel;html=1;align=center;verticalAlign=middle;resizable=0;points=[];" parent="6zOTHCYMn93DbX12q7oU-50" vertex="1" connectable="0">
                    <mxGeometry x="-0.7913" relative="1" as="geometry">
                        <mxPoint x="-20" y="-11" as="offset"/>
                    </mxGeometry>
                </mxCell>
                <mxCell id="V5nQ-EOYTLn5Q9zyDMKF-14" value="1" style="edgeLabel;html=1;align=center;verticalAlign=middle;resizable=0;points=[];" parent="6zOTHCYMn93DbX12q7oU-50" vertex="1" connectable="0">
                    <mxGeometry x="0.7123" y="-1" relative="1" as="geometry">
                        <mxPoint x="1" y="-11" as="offset"/>
                    </mxGeometry>
                </mxCell>
                <mxCell id="Hn97OW8CmNCbwNy5XYP6-3" style="edgeStyle=none;html=1;endArrow=diamondThin;endFill=0;endSize=18;entryX=0.5;entryY=1;entryDx=0;entryDy=0;" parent="1" source="6zOTHCYMn93DbX12q7oU-15" target="Hn97OW8CmNCbwNy5XYP6-1" edge="1">
                    <mxGeometry relative="1" as="geometry"/>
                </mxCell>
                <mxCell id="V5nQ-EOYTLn5Q9zyDMKF-7" value="1" style="edgeLabel;html=1;align=center;verticalAlign=middle;resizable=0;points=[];" parent="Hn97OW8CmNCbwNy5XYP6-3" vertex="1" connectable="0">
                    <mxGeometry x="0.4503" y="-3" relative="1" as="geometry">
                        <mxPoint x="-25" y="-9" as="offset"/>
                    </mxGeometry>
                </mxCell>
                <mxCell id="V5nQ-EOYTLn5Q9zyDMKF-12" value="*" style="edgeLabel;html=1;align=center;verticalAlign=middle;resizable=0;points=[];" parent="Hn97OW8CmNCbwNy5XYP6-3" vertex="1" connectable="0">
                    <mxGeometry x="-0.5092" y="-2" relative="1" as="geometry">
                        <mxPoint y="21" as="offset"/>
                    </mxGeometry>
                </mxCell>
                <mxCell id="6zOTHCYMn93DbX12q7oU-15" value="Layer" style="swimlane;fontStyle=1;align=center;verticalAlign=top;childLayout=stackLayout;horizontal=1;startSize=26;horizontalStack=0;resizeParent=1;resizeParentMax=0;resizeLast=0;collapsible=1;marginBottom=0;" parent="1" vertex="1" collapsed="1">
                    <mxGeometry x="566.5" y="218" width="67" height="26" as="geometry">
                        <mxRectangle x="305" y="60" width="160" height="34" as="alternateBounds"/>
                    </mxGeometry>
                </mxCell>
                <mxCell id="6zOTHCYMn93DbX12q7oU-39" style="edgeStyle=none;html=1;endArrow=diamondThin;endFill=1;endSize=18;" parent="1" source="6zOTHCYMn93DbX12q7oU-20" target="6zOTHCYMn93DbX12q7oU-15" edge="1">
                    <mxGeometry relative="1" as="geometry"/>
                </mxCell>
                <mxCell id="6zOTHCYMn93DbX12q7oU-40" value="*" style="edgeLabel;html=1;align=center;verticalAlign=middle;resizable=0;points=[];" parent="6zOTHCYMn93DbX12q7oU-39" vertex="1" connectable="0">
                    <mxGeometry x="0.3924" y="-1" relative="1" as="geometry">
                        <mxPoint x="-13" y="-12" as="offset"/>
                    </mxGeometry>
                </mxCell>
                <mxCell id="6zOTHCYMn93DbX12q7oU-41" value="1" style="edgeLabel;html=1;align=center;verticalAlign=middle;resizable=0;points=[];" parent="6zOTHCYMn93DbX12q7oU-39" vertex="1" connectable="0">
                    <mxGeometry x="-0.5424" y="-1" relative="1" as="geometry">
                        <mxPoint x="3" y="-9" as="offset"/>
                    </mxGeometry>
                </mxCell>
                <mxCell id="_86aZKWfEnXRI00gfZHA-1" style="edgeStyle=none;html=1;entryX=0.853;entryY=1;entryDx=0;entryDy=0;entryPerimeter=0;endArrow=diamondThin;endFill=0;endSize=18;" parent="1" source="6zOTHCYMn93DbX12q7oU-20" target="Hn97OW8CmNCbwNy5XYP6-1" edge="1">
                    <mxGeometry relative="1" as="geometry"/>
                </mxCell>
                <mxCell id="_86aZKWfEnXRI00gfZHA-2" value="*" style="edgeLabel;html=1;align=center;verticalAlign=middle;resizable=0;points=[];" parent="_86aZKWfEnXRI00gfZHA-1" vertex="1" connectable="0">
                    <mxGeometry x="-0.8622" y="2" relative="1" as="geometry">
                        <mxPoint x="7" y="-9" as="offset"/>
                    </mxGeometry>
                </mxCell>
                <mxCell id="_86aZKWfEnXRI00gfZHA-3" value="1" style="edgeLabel;html=1;align=center;verticalAlign=middle;resizable=0;points=[];" parent="_86aZKWfEnXRI00gfZHA-1" vertex="1" connectable="0">
                    <mxGeometry x="0.6912" y="-1" relative="1" as="geometry">
                        <mxPoint as="offset"/>
                    </mxGeometry>
                </mxCell>
                <mxCell id="6zOTHCYMn93DbX12q7oU-20" value="LayerGroup" style="swimlane;fontStyle=1;align=center;verticalAlign=top;childLayout=stackLayout;horizontal=1;startSize=26;horizontalStack=0;resizeParent=1;resizeParentMax=0;resizeLast=0;collapsible=1;marginBottom=0;" parent="1" vertex="1" collapsed="1">
                    <mxGeometry x="717.23" y="218" width="103" height="26" as="geometry">
                        <mxRectangle x="558" y="60" width="160" height="34" as="alternateBounds"/>
                    </mxGeometry>
                </mxCell>
                <mxCell id="6zOTHCYMn93DbX12q7oU-79" style="edgeStyle=none;html=1;endArrow=block;endFill=0;endSize=14;" parent="1" source="6zOTHCYMn93DbX12q7oU-24" target="6zOTHCYMn93DbX12q7oU-15" edge="1">
                    <mxGeometry relative="1" as="geometry"/>
                </mxCell>
                <mxCell id="6zOTHCYMn93DbX12q7oU-24" value="BaseLayer" style="swimlane;fontStyle=1;align=center;verticalAlign=top;childLayout=stackLayout;horizontal=1;startSize=26;horizontalStack=0;resizeParent=1;resizeParentMax=0;resizeLast=0;collapsible=1;marginBottom=0;" parent="1" vertex="1" collapsed="1">
                    <mxGeometry x="552" y="300" width="96" height="26" as="geometry">
                        <mxRectangle x="183" y="155" width="160" height="34" as="alternateBounds"/>
                    </mxGeometry>
                </mxCell>
                <mxCell id="6zOTHCYMn93DbX12q7oU-29" style="edgeStyle=orthogonalEdgeStyle;html=1;" parent="1" source="6zOTHCYMn93DbX12q7oU-20" target="6zOTHCYMn93DbX12q7oU-20" edge="1">
                    <mxGeometry relative="1" as="geometry"/>
                </mxCell>
                <mxCell id="V5nQ-EOYTLn5Q9zyDMKF-22" value="1" style="edgeLabel;html=1;align=center;verticalAlign=middle;resizable=0;points=[];" parent="6zOTHCYMn93DbX12q7oU-29" vertex="1" connectable="0">
                    <mxGeometry x="-0.6292" relative="1" as="geometry">
                        <mxPoint x="-4" y="-9" as="offset"/>
                    </mxGeometry>
                </mxCell>
                <mxCell id="V5nQ-EOYTLn5Q9zyDMKF-23" value="*" style="edgeLabel;html=1;align=center;verticalAlign=middle;resizable=0;points=[];" parent="6zOTHCYMn93DbX12q7oU-29" vertex="1" connectable="0">
                    <mxGeometry x="0.5073" relative="1" as="geometry">
                        <mxPoint x="-1" y="11" as="offset"/>
                    </mxGeometry>
                </mxCell>
                <mxCell id="6zOTHCYMn93DbX12q7oU-78" style="edgeStyle=none;html=1;endArrow=block;endFill=0;endSize=14;" parent="1" source="6zOTHCYMn93DbX12q7oU-52" target="6zOTHCYMn93DbX12q7oU-15" edge="1">
                    <mxGeometry relative="1" as="geometry"/>
                </mxCell>
                <mxCell id="6zOTHCYMn93DbX12q7oU-52" value="OverlayLayer" style="swimlane;fontStyle=1;align=center;verticalAlign=top;childLayout=stackLayout;horizontal=1;startSize=26;horizontalStack=0;resizeParent=1;resizeParentMax=0;resizeLast=0;collapsible=1;marginBottom=0;" parent="1" vertex="1" collapsed="1">
                    <mxGeometry x="700.5" y="300" width="111" height="26" as="geometry">
                        <mxRectangle x="441" y="155" width="160" height="34" as="alternateBounds"/>
                    </mxGeometry>
                </mxCell>
                <mxCell id="6zOTHCYMn93DbX12q7oU-76" style="html=1;endArrow=block;endFill=0;endSize=14;" parent="1" source="6zOTHCYMn93DbX12q7oU-57" target="6zOTHCYMn93DbX12q7oU-52" edge="1">
                    <mxGeometry relative="1" as="geometry"/>
                </mxCell>
                <mxCell id="6zOTHCYMn93DbX12q7oU-57" value="RasterLayer" style="swimlane;fontStyle=1;align=center;verticalAlign=top;childLayout=stackLayout;horizontal=1;startSize=26;horizontalStack=0;resizeParent=1;resizeParentMax=0;resizeLast=0;collapsible=1;marginBottom=0;" parent="1" vertex="1" collapsed="1">
                    <mxGeometry x="633.5" y="381" width="104" height="26" as="geometry">
                        <mxRectangle x="315" y="277" width="160" height="34" as="alternateBounds"/>
                    </mxGeometry>
                </mxCell>
                <mxCell id="6zOTHCYMn93DbX12q7oU-77" style="edgeStyle=none;html=1;endArrow=block;endFill=0;endSize=14;" parent="1" source="6zOTHCYMn93DbX12q7oU-62" target="6zOTHCYMn93DbX12q7oU-52" edge="1">
                    <mxGeometry relative="1" as="geometry"/>
                </mxCell>
                <mxCell id="6zOTHCYMn93DbX12q7oU-62" value="VectorLayer" style="swimlane;fontStyle=1;align=center;verticalAlign=top;childLayout=stackLayout;horizontal=1;startSize=26;horizontalStack=0;resizeParent=1;resizeParentMax=0;resizeLast=0;collapsible=1;marginBottom=0;" parent="1" vertex="1" collapsed="1">
                    <mxGeometry x="787.5" y="381" width="104" height="26" as="geometry">
                        <mxRectangle x="556" y="277" width="160" height="34" as="alternateBounds"/>
                    </mxGeometry>
                </mxCell>
                <mxCell id="6zOTHCYMn93DbX12q7oU-87" style="edgeStyle=none;html=1;endArrow=block;endFill=0;endSize=14;" parent="1" source="6zOTHCYMn93DbX12q7oU-82" target="6zOTHCYMn93DbX12q7oU-10" edge="1">
                    <mxGeometry relative="1" as="geometry"/>
                </mxCell>
                <mxCell id="6zOTHCYMn93DbX12q7oU-82" value="FileSource" style="swimlane;fontStyle=1;align=center;verticalAlign=top;childLayout=stackLayout;horizontal=1;startSize=26;horizontalStack=0;resizeParent=1;resizeParentMax=0;resizeLast=0;collapsible=1;marginBottom=0;" parent="1" vertex="1" collapsed="1">
                    <mxGeometry x="203" y="271" width="102" height="26" as="geometry">
                        <mxRectangle x="57" y="60" width="160" height="34" as="alternateBounds"/>
                    </mxGeometry>
                </mxCell>
                <mxCell id="6zOTHCYMn93DbX12q7oU-86" style="edgeStyle=none;html=1;endArrow=block;endFill=0;endSize=14;" parent="1" source="6zOTHCYMn93DbX12q7oU-84" target="6zOTHCYMn93DbX12q7oU-10" edge="1">
                    <mxGeometry relative="1" as="geometry"/>
                </mxCell>
                <mxCell id="6zOTHCYMn93DbX12q7oU-84" value="OWSSource" style="swimlane;fontStyle=1;align=center;verticalAlign=top;childLayout=stackLayout;horizontal=1;startSize=26;horizontalStack=0;resizeParent=1;resizeParentMax=0;resizeLast=0;collapsible=1;marginBottom=0;" parent="1" vertex="1" collapsed="1">
                    <mxGeometry x="373" y="271" width="111" height="26" as="geometry">
                        <mxRectangle x="181" y="204" width="160" height="34" as="alternateBounds"/>
                    </mxGeometry>
                </mxCell>
                <mxCell id="Hn97OW8CmNCbwNy5XYP6-1" value="Library" style="swimlane;fontStyle=1;align=center;verticalAlign=top;childLayout=stackLayout;horizontal=1;startSize=26;horizontalStack=0;resizeParent=1;resizeParentMax=0;resizeLast=0;collapsible=1;marginBottom=0;" parent="1" vertex="1" collapsed="1">
                    <mxGeometry x="425" y="49" width="102" height="26" as="geometry">
                        <mxRectangle x="57" y="60" width="160" height="34" as="alternateBounds"/>
                    </mxGeometry>
                </mxCell>
                <mxCell id="V5nQ-EOYTLn5Q9zyDMKF-2" style="edgeStyle=none;html=1;endArrow=diamondThin;endFill=1;endSize=14;" parent="1" source="V5nQ-EOYTLn5Q9zyDMKF-1" target="6zOTHCYMn93DbX12q7oU-15" edge="1">
                    <mxGeometry relative="1" as="geometry"/>
                </mxCell>
                <mxCell id="V5nQ-EOYTLn5Q9zyDMKF-16" value="1" style="edgeLabel;html=1;align=center;verticalAlign=middle;resizable=0;points=[];" parent="V5nQ-EOYTLn5Q9zyDMKF-2" vertex="1" connectable="0">
                    <mxGeometry x="-0.4204" y="2" relative="1" as="geometry">
                        <mxPoint x="-24" y="36" as="offset"/>
                    </mxGeometry>
                </mxCell>
                <mxCell id="V5nQ-EOYTLn5Q9zyDMKF-20" value="1" style="edgeLabel;html=1;align=center;verticalAlign=middle;resizable=0;points=[];" parent="V5nQ-EOYTLn5Q9zyDMKF-2" vertex="1" connectable="0">
                    <mxGeometry x="0.8046" y="1" relative="1" as="geometry">
                        <mxPoint x="10" y="9" as="offset"/>
                    </mxGeometry>
                </mxCell>
                <mxCell id="V5nQ-EOYTLn5Q9zyDMKF-3" style="edgeStyle=none;html=1;endArrow=diamondThin;endFill=1;endSize=14;" parent="1" source="V5nQ-EOYTLn5Q9zyDMKF-1" target="6zOTHCYMn93DbX12q7oU-10" edge="1">
                    <mxGeometry relative="1" as="geometry"/>
                </mxCell>
                <mxCell id="V5nQ-EOYTLn5Q9zyDMKF-17" value="1" style="edgeLabel;html=1;align=center;verticalAlign=middle;resizable=0;points=[];" parent="V5nQ-EOYTLn5Q9zyDMKF-3" vertex="1" connectable="0">
                    <mxGeometry x="-0.7684" y="-4" relative="1" as="geometry">
                        <mxPoint x="5" y="-9" as="offset"/>
                    </mxGeometry>
                </mxCell>
                <mxCell id="V5nQ-EOYTLn5Q9zyDMKF-21" value="1" style="edgeLabel;html=1;align=center;verticalAlign=middle;resizable=0;points=[];" parent="V5nQ-EOYTLn5Q9zyDMKF-3" vertex="1" connectable="0">
                    <mxGeometry x="0.6163" y="-2" relative="1" as="geometry">
                        <mxPoint x="8" y="-2" as="offset"/>
                    </mxGeometry>
                </mxCell>
                <mxCell id="V5nQ-EOYTLn5Q9zyDMKF-15" style="edgeStyle=none;html=1;endArrow=diamondThin;endFill=1;endSize=18;" parent="1" source="V5nQ-EOYTLn5Q9zyDMKF-1" edge="1">
                    <mxGeometry relative="1" as="geometry">
                        <mxPoint x="86.09090909090901" y="238.27272727272725" as="targetPoint"/>
                    </mxGeometry>
                </mxCell>
                <mxCell id="V5nQ-EOYTLn5Q9zyDMKF-18" value="1" style="edgeLabel;html=1;align=center;verticalAlign=middle;resizable=0;points=[];" parent="V5nQ-EOYTLn5Q9zyDMKF-15" vertex="1" connectable="0">
                    <mxGeometry x="-0.7448" y="-3" relative="1" as="geometry">
                        <mxPoint x="-8" y="11" as="offset"/>
                    </mxGeometry>
                </mxCell>
                <mxCell id="V5nQ-EOYTLn5Q9zyDMKF-19" value="1" style="edgeLabel;html=1;align=center;verticalAlign=middle;resizable=0;points=[];" parent="V5nQ-EOYTLn5Q9zyDMKF-15" vertex="1" connectable="0">
                    <mxGeometry x="0.7489" y="3" relative="1" as="geometry">
                        <mxPoint x="-19" y="5" as="offset"/>
                    </mxGeometry>
                </mxCell>
                <mxCell id="V5nQ-EOYTLn5Q9zyDMKF-1" value="Metadata" style="swimlane;fontStyle=1;align=center;verticalAlign=top;childLayout=stackLayout;horizontal=1;startSize=26;horizontalStack=0;resizeParent=1;resizeParentMax=0;resizeLast=0;collapsible=1;marginBottom=0;" parent="1" vertex="1" collapsed="1">
                    <mxGeometry x="289.5" y="410" width="102" height="26" as="geometry">
                        <mxRectangle x="57" y="60" width="160" height="34" as="alternateBounds"/>
                    </mxGeometry>
                </mxCell>
                <mxCell id="V5nQ-EOYTLn5Q9zyDMKF-6" style="edgeStyle=none;html=1;endArrow=diamondThin;endFill=0;endSize=18;" parent="1" source="V5nQ-EOYTLn5Q9zyDMKF-4" target="Hn97OW8CmNCbwNy5XYP6-1" edge="1">
                    <mxGeometry relative="1" as="geometry"/>
                </mxCell>
                <mxCell id="V5nQ-EOYTLn5Q9zyDMKF-9" value="1" style="edgeLabel;html=1;align=center;verticalAlign=middle;resizable=0;points=[];" parent="V5nQ-EOYTLn5Q9zyDMKF-6" vertex="1" connectable="0">
                    <mxGeometry x="0.5114" y="-1" relative="1" as="geometry">
                        <mxPoint x="12" y="-18" as="offset"/>
                    </mxGeometry>
                </mxCell>
                <mxCell id="V5nQ-EOYTLn5Q9zyDMKF-10" value="*" style="edgeLabel;html=1;align=center;verticalAlign=middle;resizable=0;points=[];" parent="V5nQ-EOYTLn5Q9zyDMKF-6" vertex="1" connectable="0">
                    <mxGeometry x="-0.8049" y="-2" relative="1" as="geometry">
                        <mxPoint y="-13" as="offset"/>
                    </mxGeometry>
                </mxCell>
                <mxCell id="V5nQ-EOYTLn5Q9zyDMKF-4" value="Project" style="swimlane;fontStyle=1;align=center;verticalAlign=top;childLayout=stackLayout;horizontal=1;startSize=26;horizontalStack=0;resizeParent=1;resizeParentMax=0;resizeLast=0;collapsible=1;marginBottom=0;" parent="1" vertex="1" collapsed="1">
                    <mxGeometry x="49" y="212" width="102" height="26" as="geometry">
                        <mxRectangle x="57" y="60" width="160" height="34" as="alternateBounds"/>
                    </mxGeometry>
                </mxCell>
                <mxCell id="V5nQ-EOYTLn5Q9zyDMKF-32" style="edgeStyle=none;html=1;endArrow=diamondThin;endFill=1;endSize=18;" parent="1" source="V5nQ-EOYTLn5Q9zyDMKF-31" target="6zOTHCYMn93DbX12q7oU-62" edge="1">
                    <mxGeometry relative="1" as="geometry"/>
                </mxCell>
                <mxCell id="V5nQ-EOYTLn5Q9zyDMKF-36" value="1" style="edgeLabel;html=1;align=center;verticalAlign=middle;resizable=0;points=[];" parent="V5nQ-EOYTLn5Q9zyDMKF-32" vertex="1" connectable="0">
                    <mxGeometry x="-0.2099" y="1" relative="1" as="geometry">
                        <mxPoint x="46" y="-42" as="offset"/>
                    </mxGeometry>
                </mxCell>
                <mxCell id="V5nQ-EOYTLn5Q9zyDMKF-37" value="1" style="edgeLabel;html=1;align=center;verticalAlign=middle;resizable=0;points=[];" parent="V5nQ-EOYTLn5Q9zyDMKF-32" vertex="1" connectable="0">
                    <mxGeometry x="0.5924" y="1" relative="1" as="geometry">
                        <mxPoint x="10" y="10" as="offset"/>
                    </mxGeometry>
                </mxCell>
                <mxCell id="V5nQ-EOYTLn5Q9zyDMKF-33" style="edgeStyle=none;html=1;endArrow=diamondThin;endFill=0;endSize=18;entryX=1;entryY=0.5;entryDx=0;entryDy=0;" parent="1" source="V5nQ-EOYTLn5Q9zyDMKF-31" target="Hn97OW8CmNCbwNy5XYP6-1" edge="1">
                    <mxGeometry relative="1" as="geometry">
                        <mxPoint x="522" y="76" as="targetPoint"/>
                    </mxGeometry>
                </mxCell>
                <mxCell id="V5nQ-EOYTLn5Q9zyDMKF-34" value="1" style="edgeLabel;html=1;align=center;verticalAlign=middle;resizable=0;points=[];" parent="V5nQ-EOYTLn5Q9zyDMKF-33" vertex="1" connectable="0">
                    <mxGeometry x="0.5821" y="1" relative="1" as="geometry">
                        <mxPoint x="-45" y="-28" as="offset"/>
                    </mxGeometry>
                </mxCell>
                <mxCell id="V5nQ-EOYTLn5Q9zyDMKF-35" value="*" style="edgeLabel;html=1;align=center;verticalAlign=middle;resizable=0;points=[];" parent="V5nQ-EOYTLn5Q9zyDMKF-33" vertex="1" connectable="0">
                    <mxGeometry x="-0.9007" y="-1" relative="1" as="geometry">
                        <mxPoint x="10" y="-10" as="offset"/>
                    </mxGeometry>
                </mxCell>
                <mxCell id="V5nQ-EOYTLn5Q9zyDMKF-31" value="LayerStyle" style="swimlane;fontStyle=1;align=center;verticalAlign=top;childLayout=stackLayout;horizontal=1;startSize=26;horizontalStack=0;resizeParent=1;resizeParentMax=0;resizeLast=0;collapsible=1;marginBottom=0;" parent="1" vertex="1" collapsed="1">
                    <mxGeometry x="908" y="218" width="104" height="26" as="geometry">
                        <mxRectangle x="556" y="277" width="160" height="34" as="alternateBounds"/>
                    </mxGeometry>
                </mxCell>
            </root>
        </mxGraphModel>
    </diagram>
    <diagram name="Layer" id="5-cKiPhgGnI4mAaVe8_N">
        <mxGraphModel dx="2216" dy="475" grid="0" gridSize="10" guides="1" tooltips="1" connect="1" arrows="1" fold="1" page="1" pageScale="1" pageWidth="1169" pageHeight="827" math="0" shadow="0">
            <root>
                <mxCell id="ytTgHxQCcFlKiNWetzWb-0"/>
                <mxCell id="ytTgHxQCcFlKiNWetzWb-1" parent="ytTgHxQCcFlKiNWetzWb-0"/>
                <mxCell id="ytTgHxQCcFlKiNWetzWb-2" style="edgeStyle=none;html=1;endArrow=diamondThin;endFill=0;endSize=18;" parent="ytTgHxQCcFlKiNWetzWb-1" source="ytTgHxQCcFlKiNWetzWb-5" target="ytTgHxQCcFlKiNWetzWb-32" edge="1">
                    <mxGeometry relative="1" as="geometry"/>
                </mxCell>
                <mxCell id="ytTgHxQCcFlKiNWetzWb-3" value="1" style="edgeLabel;html=1;align=center;verticalAlign=middle;resizable=0;points=[];" parent="ytTgHxQCcFlKiNWetzWb-2" vertex="1" connectable="0">
                    <mxGeometry x="0.2563" y="2" relative="1" as="geometry">
                        <mxPoint x="22" y="-21" as="offset"/>
                    </mxGeometry>
                </mxCell>
                <mxCell id="ytTgHxQCcFlKiNWetzWb-4" value="*" style="edgeLabel;html=1;align=center;verticalAlign=middle;resizable=0;points=[];" parent="ytTgHxQCcFlKiNWetzWb-2" vertex="1" connectable="0">
                    <mxGeometry x="-0.645" y="-2" relative="1" as="geometry">
                        <mxPoint x="-11" y="-14" as="offset"/>
                    </mxGeometry>
                </mxCell>
                <mxCell id="LsL92HqbbHLOXvHKX6SR-37" style="edgeStyle=none;html=1;endArrow=diamondThin;endFill=0;endSize=18;" parent="ytTgHxQCcFlKiNWetzWb-1" source="ytTgHxQCcFlKiNWetzWb-5" target="LsL92HqbbHLOXvHKX6SR-24" edge="1">
                    <mxGeometry relative="1" as="geometry"/>
                </mxCell>
                <mxCell id="LsL92HqbbHLOXvHKX6SR-38" value="1" style="edgeLabel;html=1;align=center;verticalAlign=middle;resizable=0;points=[];" parent="LsL92HqbbHLOXvHKX6SR-37" vertex="1" connectable="0">
                    <mxGeometry x="0.589" y="-2" relative="1" as="geometry">
                        <mxPoint x="-8" y="-13" as="offset"/>
                    </mxGeometry>
                </mxCell>
                <mxCell id="LsL92HqbbHLOXvHKX6SR-39" value="*" style="edgeLabel;html=1;align=center;verticalAlign=middle;resizable=0;points=[];" parent="LsL92HqbbHLOXvHKX6SR-37" vertex="1" connectable="0">
                    <mxGeometry x="-0.7897" y="-2" relative="1" as="geometry">
                        <mxPoint x="-3" y="-14" as="offset"/>
                    </mxGeometry>
                </mxCell>
                <mxCell id="ytTgHxQCcFlKiNWetzWb-5" value="Source" style="swimlane;fontStyle=1;align=center;verticalAlign=top;childLayout=stackLayout;horizontal=1;startSize=26;horizontalStack=0;resizeParent=1;resizeParentMax=0;resizeLast=0;collapsible=1;marginBottom=0;" parent="ytTgHxQCcFlKiNWetzWb-1" vertex="1">
                    <mxGeometry x="97" y="101" width="160" height="138" as="geometry">
                        <mxRectangle x="110" y="115" width="102" height="26" as="alternateBounds"/>
                    </mxGeometry>
                </mxCell>
                <mxCell id="LsL92HqbbHLOXvHKX6SR-23" value="+ attribution: string" style="text;strokeColor=none;fillColor=none;align=left;verticalAlign=top;spacingLeft=4;spacingRight=4;overflow=hidden;rotatable=0;points=[[0,0.5],[1,0.5]];portConstraint=eastwest;" parent="ytTgHxQCcFlKiNWetzWb-5" vertex="1">
                    <mxGeometry y="26" width="160" height="26" as="geometry"/>
                </mxCell>
                <mxCell id="LsL92HqbbHLOXvHKX6SR-43" value="+ layers: layer" style="text;strokeColor=none;fillColor=none;align=left;verticalAlign=top;spacingLeft=4;spacingRight=4;overflow=hidden;rotatable=0;points=[[0,0.5],[1,0.5]];portConstraint=eastwest;" parent="ytTgHxQCcFlKiNWetzWb-5" vertex="1">
                    <mxGeometry y="52" width="160" height="26" as="geometry"/>
                </mxCell>
                <mxCell id="LsL92HqbbHLOXvHKX6SR-7" value="+ url: string" style="text;strokeColor=none;fillColor=none;align=left;verticalAlign=top;spacingLeft=4;spacingRight=4;overflow=hidden;rotatable=0;points=[[0,0.5],[1,0.5]];portConstraint=eastwest;" parent="ytTgHxQCcFlKiNWetzWb-5" vertex="1">
                    <mxGeometry y="78" width="160" height="26" as="geometry"/>
                </mxCell>
                <mxCell id="LsL92HqbbHLOXvHKX6SR-10" value="" style="line;strokeWidth=1;fillColor=none;align=left;verticalAlign=middle;spacingTop=-1;spacingLeft=3;spacingRight=3;rotatable=0;labelPosition=right;points=[];portConstraint=eastwest;strokeColor=inherit;glass=0;" parent="ytTgHxQCcFlKiNWetzWb-5" vertex="1">
                    <mxGeometry y="104" width="160" height="8" as="geometry"/>
                </mxCell>
                <mxCell id="LsL92HqbbHLOXvHKX6SR-45" value="+ update():" style="text;strokeColor=none;fillColor=none;align=left;verticalAlign=top;spacingLeft=4;spacingRight=4;overflow=hidden;rotatable=0;points=[[0,0.5],[1,0.5]];portConstraint=eastwest;" parent="ytTgHxQCcFlKiNWetzWb-5" vertex="1">
                    <mxGeometry y="112" width="160" height="26" as="geometry"/>
                </mxCell>
                <mxCell id="ytTgHxQCcFlKiNWetzWb-6" style="edgeStyle=none;html=1;endArrow=diamondThin;endFill=0;endSize=18;" parent="ytTgHxQCcFlKiNWetzWb-1" source="ytTgHxQCcFlKiNWetzWb-12" target="ytTgHxQCcFlKiNWetzWb-5" edge="1">
                    <mxGeometry relative="1" as="geometry"/>
                </mxCell>
                <mxCell id="ytTgHxQCcFlKiNWetzWb-7" value="*" style="edgeLabel;html=1;align=center;verticalAlign=middle;resizable=0;points=[];" parent="ytTgHxQCcFlKiNWetzWb-6" vertex="1" connectable="0">
                    <mxGeometry x="-0.7913" relative="1" as="geometry">
                        <mxPoint x="6" y="-17" as="offset"/>
                    </mxGeometry>
                </mxCell>
                <mxCell id="ytTgHxQCcFlKiNWetzWb-8" value="1" style="edgeLabel;html=1;align=center;verticalAlign=middle;resizable=0;points=[];" parent="ytTgHxQCcFlKiNWetzWb-6" vertex="1" connectable="0">
                    <mxGeometry x="0.7123" y="-1" relative="1" as="geometry">
                        <mxPoint x="1" y="-11" as="offset"/>
                    </mxGeometry>
                </mxCell>
                <mxCell id="ytTgHxQCcFlKiNWetzWb-9" style="edgeStyle=none;html=1;endArrow=diamondThin;endFill=0;endSize=18;" parent="ytTgHxQCcFlKiNWetzWb-1" source="ytTgHxQCcFlKiNWetzWb-12" target="ytTgHxQCcFlKiNWetzWb-32" edge="1">
                    <mxGeometry relative="1" as="geometry"/>
                </mxCell>
                <mxCell id="ytTgHxQCcFlKiNWetzWb-10" value="1" style="edgeLabel;html=1;align=center;verticalAlign=middle;resizable=0;points=[];" parent="ytTgHxQCcFlKiNWetzWb-9" vertex="1" connectable="0">
                    <mxGeometry x="0.4503" y="-3" relative="1" as="geometry">
                        <mxPoint x="-26" y="-6" as="offset"/>
                    </mxGeometry>
                </mxCell>
                <mxCell id="ytTgHxQCcFlKiNWetzWb-11" value="*" style="edgeLabel;html=1;align=center;verticalAlign=middle;resizable=0;points=[];" parent="ytTgHxQCcFlKiNWetzWb-9" vertex="1" connectable="0">
                    <mxGeometry x="-0.5092" y="-2" relative="1" as="geometry">
                        <mxPoint x="-27" y="8" as="offset"/>
                    </mxGeometry>
                </mxCell>
                <mxCell id="ytTgHxQCcFlKiNWetzWb-12" value="Layer" style="swimlane;fontStyle=1;align=center;verticalAlign=top;childLayout=stackLayout;horizontal=1;startSize=26;horizontalStack=0;resizeParent=1;resizeParentMax=0;resizeLast=0;collapsible=1;marginBottom=0;glass=0;" parent="ytTgHxQCcFlKiNWetzWb-1" vertex="1">
                    <mxGeometry x="364" y="388" width="160" height="244" as="geometry">
                        <mxRectangle x="392.5" y="188" width="67" height="26" as="alternateBounds"/>
                    </mxGeometry>
                </mxCell>
                <mxCell id="mQnTIvynhWTz8QyYMG3Q-4" value="+ icon: image" style="text;strokeColor=none;fillColor=none;align=left;verticalAlign=top;spacingLeft=4;spacingRight=4;overflow=hidden;rotatable=0;points=[[0,0.5],[1,0.5]];portConstraint=eastwest;" parent="ytTgHxQCcFlKiNWetzWb-12" vertex="1">
                    <mxGeometry y="26" width="160" height="26" as="geometry"/>
                </mxCell>
                <mxCell id="mQnTIvynhWTz8QyYMG3Q-0" value="+ id: string" style="text;strokeColor=none;fillColor=none;align=left;verticalAlign=top;spacingLeft=4;spacingRight=4;overflow=hidden;rotatable=0;points=[[0,0.5],[1,0.5]];portConstraint=eastwest;" parent="ytTgHxQCcFlKiNWetzWb-12" vertex="1">
                    <mxGeometry y="52" width="160" height="26" as="geometry"/>
                </mxCell>
                <mxCell id="mQnTIvynhWTz8QyYMG3Q-1" value="+ name: string" style="text;strokeColor=none;fillColor=none;align=left;verticalAlign=top;spacingLeft=4;spacingRight=4;overflow=hidden;rotatable=0;points=[[0,0.5],[1,0.5]];portConstraint=eastwest;" parent="ytTgHxQCcFlKiNWetzWb-12" vertex="1">
                    <mxGeometry y="78" width="160" height="26" as="geometry"/>
                </mxCell>
                <mxCell id="LsL92HqbbHLOXvHKX6SR-20" value="+ metadata: metadata" style="text;strokeColor=none;fillColor=none;align=left;verticalAlign=top;spacingLeft=4;spacingRight=4;overflow=hidden;rotatable=0;points=[[0,0.5],[1,0.5]];portConstraint=eastwest;" parent="ytTgHxQCcFlKiNWetzWb-12" vertex="1">
                    <mxGeometry y="104" width="160" height="27" as="geometry"/>
                </mxCell>
                <mxCell id="mQnTIvynhWTz8QyYMG3Q-2" value="+ title: string" style="text;strokeColor=none;fillColor=none;align=left;verticalAlign=top;spacingLeft=4;spacingRight=4;overflow=hidden;rotatable=0;points=[[0,0.5],[1,0.5]];portConstraint=eastwest;" parent="ytTgHxQCcFlKiNWetzWb-12" vertex="1">
                    <mxGeometry y="131" width="160" height="27" as="geometry"/>
                </mxCell>
                <mxCell id="fwen-o8JYTCnN6Gq7A2M-5" value="" style="line;strokeWidth=1;fillColor=none;align=left;verticalAlign=middle;spacingTop=-1;spacingLeft=3;spacingRight=3;rotatable=0;labelPosition=right;points=[];portConstraint=eastwest;strokeColor=inherit;glass=0;" parent="ytTgHxQCcFlKiNWetzWb-12" vertex="1">
                    <mxGeometry y="158" width="160" height="8" as="geometry"/>
                </mxCell>
                <mxCell id="mQnTIvynhWTz8QyYMG3Q-7" value="+ addTo(Map)" style="text;strokeColor=none;fillColor=none;align=left;verticalAlign=top;spacingLeft=4;spacingRight=4;overflow=hidden;rotatable=0;points=[[0,0.5],[1,0.5]];portConstraint=eastwest;" parent="ytTgHxQCcFlKiNWetzWb-12" vertex="1">
                    <mxGeometry y="166" width="160" height="26" as="geometry"/>
                </mxCell>
                <mxCell id="mQnTIvynhWTz8QyYMG3Q-10" value="+ isActive(): boolean" style="text;strokeColor=none;fillColor=none;align=left;verticalAlign=top;spacingLeft=4;spacingRight=4;overflow=hidden;rotatable=0;points=[[0,0.5],[1,0.5]];portConstraint=eastwest;" parent="ytTgHxQCcFlKiNWetzWb-12" vertex="1">
                    <mxGeometry y="192" width="160" height="26" as="geometry"/>
                </mxCell>
                <mxCell id="mQnTIvynhWTz8QyYMG3Q-8" value="+ remove()" style="text;strokeColor=none;fillColor=none;align=left;verticalAlign=top;spacingLeft=4;spacingRight=4;overflow=hidden;rotatable=0;points=[[0,0.5],[1,0.5]];portConstraint=eastwest;" parent="ytTgHxQCcFlKiNWetzWb-12" vertex="1">
                    <mxGeometry y="218" width="160" height="26" as="geometry"/>
                </mxCell>
                <mxCell id="ytTgHxQCcFlKiNWetzWb-13" style="edgeStyle=none;html=1;endArrow=diamondThin;endFill=1;endSize=18;" parent="ytTgHxQCcFlKiNWetzWb-1" source="ytTgHxQCcFlKiNWetzWb-16" target="ytTgHxQCcFlKiNWetzWb-12" edge="1">
                    <mxGeometry relative="1" as="geometry"/>
                </mxCell>
                <mxCell id="ytTgHxQCcFlKiNWetzWb-14" value="*" style="edgeLabel;html=1;align=center;verticalAlign=middle;resizable=0;points=[];" parent="ytTgHxQCcFlKiNWetzWb-13" vertex="1" connectable="0">
                    <mxGeometry x="0.3924" y="-1" relative="1" as="geometry">
                        <mxPoint x="-13" y="-12" as="offset"/>
                    </mxGeometry>
                </mxCell>
                <mxCell id="ytTgHxQCcFlKiNWetzWb-15" value="1" style="edgeLabel;html=1;align=center;verticalAlign=middle;resizable=0;points=[];" parent="ytTgHxQCcFlKiNWetzWb-13" vertex="1" connectable="0">
                    <mxGeometry x="-0.5424" y="-1" relative="1" as="geometry">
                        <mxPoint x="-3" y="-27" as="offset"/>
                    </mxGeometry>
                </mxCell>
                <mxCell id="ytTgHxQCcFlKiNWetzWb-16" value="LayerGroup" style="swimlane;fontStyle=1;align=center;verticalAlign=top;childLayout=stackLayout;horizontal=1;startSize=26;horizontalStack=0;resizeParent=1;resizeParentMax=0;resizeLast=0;collapsible=1;marginBottom=0;" parent="ytTgHxQCcFlKiNWetzWb-1" vertex="1">
                    <mxGeometry x="631" y="248" width="160" height="112" as="geometry">
                        <mxRectangle x="717.23" y="218" width="103" height="26" as="alternateBounds"/>
                    </mxGeometry>
                </mxCell>
                <mxCell id="fwen-o8JYTCnN6Gq7A2M-10" value="+ layers: array" style="text;strokeColor=none;fillColor=none;align=left;verticalAlign=top;spacingLeft=4;spacingRight=4;overflow=hidden;rotatable=0;points=[[0,0.5],[1,0.5]];portConstraint=eastwest;glass=0;" parent="ytTgHxQCcFlKiNWetzWb-16" vertex="1">
                    <mxGeometry y="26" width="160" height="26" as="geometry"/>
                </mxCell>
                <mxCell id="fwen-o8JYTCnN6Gq7A2M-11" value="" style="line;strokeWidth=1;fillColor=none;align=left;verticalAlign=middle;spacingTop=-1;spacingLeft=3;spacingRight=3;rotatable=0;labelPosition=right;points=[];portConstraint=eastwest;strokeColor=inherit;glass=0;" parent="ytTgHxQCcFlKiNWetzWb-16" vertex="1">
                    <mxGeometry y="52" width="160" height="8" as="geometry"/>
                </mxCell>
                <mxCell id="fwen-o8JYTCnN6Gq7A2M-12" value="+ addLayer(layer)" style="text;strokeColor=none;fillColor=none;align=left;verticalAlign=top;spacingLeft=4;spacingRight=4;overflow=hidden;rotatable=0;points=[[0,0.5],[1,0.5]];portConstraint=eastwest;glass=0;" parent="ytTgHxQCcFlKiNWetzWb-16" vertex="1">
                    <mxGeometry y="60" width="160" height="26" as="geometry"/>
                </mxCell>
                <mxCell id="fsvj333_CLVV3jNt5_As-0" value="+ removeLayer(layer)" style="text;strokeColor=none;fillColor=none;align=left;verticalAlign=top;spacingLeft=4;spacingRight=4;overflow=hidden;rotatable=0;points=[[0,0.5],[1,0.5]];portConstraint=eastwest;glass=0;" parent="ytTgHxQCcFlKiNWetzWb-16" vertex="1">
                    <mxGeometry y="86" width="160" height="26" as="geometry"/>
                </mxCell>
                <mxCell id="ytTgHxQCcFlKiNWetzWb-19" style="edgeStyle=orthogonalEdgeStyle;html=1;exitX=0.5;exitY=0;exitDx=0;exitDy=0;entryX=0.994;entryY=0.25;entryDx=0;entryDy=0;entryPerimeter=0;endArrow=classicThin;endFill=0;endSize=12;" parent="ytTgHxQCcFlKiNWetzWb-16" source="ytTgHxQCcFlKiNWetzWb-16" target="fwen-o8JYTCnN6Gq7A2M-11" edge="1">
                    <mxGeometry relative="1" as="geometry">
                        <mxPoint x="245" y="94" as="targetPoint"/>
                        <Array as="points">
                            <mxPoint x="80" y="-26"/>
                            <mxPoint x="188" y="-26"/>
                            <mxPoint x="188" y="54"/>
                        </Array>
                    </mxGeometry>
                </mxCell>
                <mxCell id="ytTgHxQCcFlKiNWetzWb-20" value="1" style="edgeLabel;html=1;align=center;verticalAlign=middle;resizable=0;points=[];" parent="ytTgHxQCcFlKiNWetzWb-19" vertex="1" connectable="0">
                    <mxGeometry x="-0.6292" relative="1" as="geometry">
                        <mxPoint x="-38" y="6" as="offset"/>
                    </mxGeometry>
                </mxCell>
                <mxCell id="ytTgHxQCcFlKiNWetzWb-21" value="*" style="edgeLabel;html=1;align=center;verticalAlign=middle;resizable=0;points=[];" parent="ytTgHxQCcFlKiNWetzWb-19" vertex="1" connectable="0">
                    <mxGeometry x="0.5073" relative="1" as="geometry">
                        <mxPoint x="-10" y="48" as="offset"/>
                    </mxGeometry>
                </mxCell>
                <mxCell id="ytTgHxQCcFlKiNWetzWb-17" style="edgeStyle=none;html=1;endArrow=block;endFill=0;endSize=14;" parent="ytTgHxQCcFlKiNWetzWb-1" source="ytTgHxQCcFlKiNWetzWb-18" target="ytTgHxQCcFlKiNWetzWb-12" edge="1">
                    <mxGeometry relative="1" as="geometry"/>
                </mxCell>
                <mxCell id="ytTgHxQCcFlKiNWetzWb-18" value="BaseLayer" style="swimlane;fontStyle=1;align=center;verticalAlign=top;childLayout=stackLayout;horizontal=1;startSize=26;horizontalStack=0;resizeParent=1;resizeParentMax=0;resizeLast=0;collapsible=1;marginBottom=0;" parent="ytTgHxQCcFlKiNWetzWb-1" vertex="1">
                    <mxGeometry x="83" y="645" width="160" height="138" as="geometry">
                        <mxRectangle x="378" y="374" width="96" height="26" as="alternateBounds"/>
                    </mxGeometry>
                </mxCell>
                <mxCell id="YntB3Wh_iBSAXOQsUPVf-1" value="+ theme: string" style="text;strokeColor=none;fillColor=none;align=left;verticalAlign=top;spacingLeft=4;spacingRight=4;overflow=hidden;rotatable=0;points=[[0,0.5],[1,0.5]];portConstraint=eastwest;" parent="ytTgHxQCcFlKiNWetzWb-18" vertex="1">
                    <mxGeometry y="26" width="160" height="26" as="geometry"/>
                </mxCell>
                <mxCell id="YntB3Wh_iBSAXOQsUPVf-0" value="+ url: string" style="text;strokeColor=none;fillColor=none;align=left;verticalAlign=top;spacingLeft=4;spacingRight=4;overflow=hidden;rotatable=0;points=[[0,0.5],[1,0.5]];portConstraint=eastwest;" parent="ytTgHxQCcFlKiNWetzWb-18" vertex="1">
                    <mxGeometry y="52" width="160" height="26" as="geometry"/>
                </mxCell>
                <mxCell id="fwen-o8JYTCnN6Gq7A2M-8" value="" style="line;strokeWidth=1;fillColor=none;align=left;verticalAlign=middle;spacingTop=-1;spacingLeft=3;spacingRight=3;rotatable=0;labelPosition=right;points=[];portConstraint=eastwest;strokeColor=inherit;glass=0;" parent="ytTgHxQCcFlKiNWetzWb-18" vertex="1">
                    <mxGeometry y="78" width="160" height="8" as="geometry"/>
                </mxCell>
                <mxCell id="qcb-pbxBG7gxidmQHIHg-3" value="+ showLegend()" style="text;strokeColor=none;fillColor=none;align=left;verticalAlign=top;spacingLeft=4;spacingRight=4;overflow=hidden;rotatable=0;points=[[0,0.5],[1,0.5]];portConstraint=eastwest;" parent="ytTgHxQCcFlKiNWetzWb-18" vertex="1">
                    <mxGeometry y="86" width="160" height="26" as="geometry"/>
                </mxCell>
                <mxCell id="qcb-pbxBG7gxidmQHIHg-0" value="+ setOverlay(layer)" style="text;strokeColor=none;fillColor=none;align=left;verticalAlign=top;spacingLeft=4;spacingRight=4;overflow=hidden;rotatable=0;points=[[0,0.5],[1,0.5]];portConstraint=eastwest;" parent="ytTgHxQCcFlKiNWetzWb-18" vertex="1">
                    <mxGeometry y="112" width="160" height="26" as="geometry"/>
                </mxCell>
                <mxCell id="ytTgHxQCcFlKiNWetzWb-22" style="edgeStyle=none;html=1;endArrow=block;endFill=0;endSize=14;" parent="ytTgHxQCcFlKiNWetzWb-1" source="ytTgHxQCcFlKiNWetzWb-23" target="ytTgHxQCcFlKiNWetzWb-12" edge="1">
                    <mxGeometry relative="1" as="geometry"/>
                </mxCell>
                <mxCell id="ytTgHxQCcFlKiNWetzWb-23" value="OverlayLayer" style="swimlane;fontStyle=1;align=center;verticalAlign=top;childLayout=stackLayout;horizontal=1;startSize=26;horizontalStack=0;resizeParent=1;resizeParentMax=0;resizeLast=0;collapsible=1;marginBottom=0;" parent="ytTgHxQCcFlKiNWetzWb-1" vertex="1">
                    <mxGeometry x="624" y="414.5" width="160" height="190" as="geometry">
                        <mxRectangle x="700.5" y="300" width="111" height="26" as="alternateBounds"/>
                    </mxGeometry>
                </mxCell>
                <mxCell id="wJ5kWoR8Lk_g_x5dooMJ-0" value="+ zIndex: int" style="text;strokeColor=none;fillColor=none;align=left;verticalAlign=top;spacingLeft=4;spacingRight=4;overflow=hidden;rotatable=0;points=[[0,0.5],[1,0.5]];portConstraint=eastwest;" parent="ytTgHxQCcFlKiNWetzWb-23" vertex="1">
                    <mxGeometry y="26" width="160" height="26" as="geometry"/>
                </mxCell>
                <mxCell id="fwen-o8JYTCnN6Gq7A2M-14" value="" style="line;strokeWidth=1;fillColor=none;align=left;verticalAlign=middle;spacingTop=-1;spacingLeft=3;spacingRight=3;rotatable=0;labelPosition=right;points=[];portConstraint=eastwest;strokeColor=inherit;glass=0;" parent="ytTgHxQCcFlKiNWetzWb-23" vertex="1">
                    <mxGeometry y="52" width="160" height="8" as="geometry"/>
                </mxCell>
                <mxCell id="EKAYYWvWm1fuc86S0WPc-2" value="+ getBounds(): object" style="text;strokeColor=none;fillColor=none;align=left;verticalAlign=top;spacingLeft=4;spacingRight=4;overflow=hidden;rotatable=0;points=[[0,0.5],[1,0.5]];portConstraint=eastwest;glass=0;" parent="ytTgHxQCcFlKiNWetzWb-23" vertex="1">
                    <mxGeometry y="60" width="160" height="26" as="geometry"/>
                </mxCell>
                <mxCell id="EKAYYWvWm1fuc86S0WPc-3" value="+ bringForward():" style="text;strokeColor=none;fillColor=none;align=left;verticalAlign=top;spacingLeft=4;spacingRight=4;overflow=hidden;rotatable=0;points=[[0,0.5],[1,0.5]];portConstraint=eastwest;glass=0;" parent="ytTgHxQCcFlKiNWetzWb-23" vertex="1">
                    <mxGeometry y="86" width="160" height="26" as="geometry"/>
                </mxCell>
                <mxCell id="wJ5kWoR8Lk_g_x5dooMJ-1" value="+ sendBackward():" style="text;strokeColor=none;fillColor=none;align=left;verticalAlign=top;spacingLeft=4;spacingRight=4;overflow=hidden;rotatable=0;points=[[0,0.5],[1,0.5]];portConstraint=eastwest;glass=0;" parent="ytTgHxQCcFlKiNWetzWb-23" vertex="1">
                    <mxGeometry y="112" width="160" height="26" as="geometry"/>
                </mxCell>
                <mxCell id="fwen-o8JYTCnN6Gq7A2M-6" value="+ setOpacity(): object" style="text;strokeColor=none;fillColor=none;align=left;verticalAlign=top;spacingLeft=4;spacingRight=4;overflow=hidden;rotatable=0;points=[[0,0.5],[1,0.5]];portConstraint=eastwest;glass=0;" parent="ytTgHxQCcFlKiNWetzWb-23" vertex="1">
                    <mxGeometry y="138" width="160" height="26" as="geometry"/>
                </mxCell>
                <mxCell id="EKAYYWvWm1fuc86S0WPc-20" value="+ exportLayer():" style="text;strokeColor=none;fillColor=none;align=left;verticalAlign=top;spacingLeft=4;spacingRight=4;overflow=hidden;rotatable=0;points=[[0,0.5],[1,0.5]];portConstraint=eastwest;glass=0;" parent="ytTgHxQCcFlKiNWetzWb-23" vertex="1">
                    <mxGeometry y="164" width="160" height="26" as="geometry"/>
                </mxCell>
                <mxCell id="ytTgHxQCcFlKiNWetzWb-24" style="html=1;endArrow=block;endFill=0;endSize=14;" parent="ytTgHxQCcFlKiNWetzWb-1" source="ytTgHxQCcFlKiNWetzWb-25" target="ytTgHxQCcFlKiNWetzWb-23" edge="1">
                    <mxGeometry relative="1" as="geometry"/>
                </mxCell>
                <mxCell id="ytTgHxQCcFlKiNWetzWb-25" value="RasterLayer" style="swimlane;fontStyle=1;align=center;verticalAlign=top;childLayout=stackLayout;horizontal=1;startSize=26;horizontalStack=0;resizeParent=1;resizeParentMax=0;resizeLast=0;collapsible=1;marginBottom=0;" parent="ytTgHxQCcFlKiNWetzWb-1" vertex="1">
                    <mxGeometry x="597.5" y="676" width="213" height="112" as="geometry">
                        <mxRectangle x="633.5" y="381" width="104" height="26" as="alternateBounds"/>
                    </mxGeometry>
                </mxCell>
                <mxCell id="fwen-o8JYTCnN6Gq7A2M-16" value="+ bands: object" style="text;strokeColor=none;fillColor=none;align=left;verticalAlign=top;spacingLeft=4;spacingRight=4;overflow=hidden;rotatable=0;points=[[0,0.5],[1,0.5]];portConstraint=eastwest;glass=0;" parent="ytTgHxQCcFlKiNWetzWb-25" vertex="1">
                    <mxGeometry y="26" width="213" height="26" as="geometry"/>
                </mxCell>
                <mxCell id="LsL92HqbbHLOXvHKX6SR-4" value="+ exif: object" style="text;strokeColor=none;fillColor=none;align=left;verticalAlign=top;spacingLeft=4;spacingRight=4;overflow=hidden;rotatable=0;points=[[0,0.5],[1,0.5]];portConstraint=eastwest;glass=0;" parent="ytTgHxQCcFlKiNWetzWb-25" vertex="1">
                    <mxGeometry y="52" width="213" height="26" as="geometry"/>
                </mxCell>
                <mxCell id="fwen-o8JYTCnN6Gq7A2M-17" value="" style="line;strokeWidth=1;fillColor=none;align=left;verticalAlign=middle;spacingTop=-1;spacingLeft=3;spacingRight=3;rotatable=0;labelPosition=right;points=[];portConstraint=eastwest;strokeColor=inherit;glass=0;" parent="ytTgHxQCcFlKiNWetzWb-25" vertex="1">
                    <mxGeometry y="78" width="213" height="8" as="geometry"/>
                </mxCell>
                <mxCell id="EKAYYWvWm1fuc86S0WPc-19" value="+ exportLayer({format, projection}):" style="text;strokeColor=none;fillColor=none;align=left;verticalAlign=top;spacingLeft=4;spacingRight=4;overflow=hidden;rotatable=0;points=[[0,0.5],[1,0.5]];portConstraint=eastwest;glass=0;" parent="ytTgHxQCcFlKiNWetzWb-25" vertex="1">
                    <mxGeometry y="86" width="213" height="26" as="geometry"/>
                </mxCell>
                <mxCell id="ytTgHxQCcFlKiNWetzWb-26" style="edgeStyle=none;html=1;endArrow=block;endFill=0;endSize=14;" parent="ytTgHxQCcFlKiNWetzWb-1" source="ytTgHxQCcFlKiNWetzWb-27" target="ytTgHxQCcFlKiNWetzWb-23" edge="1">
                    <mxGeometry relative="1" as="geometry"/>
                </mxCell>
                <mxCell id="ytTgHxQCcFlKiNWetzWb-27" value="VectorLayer" style="swimlane;fontStyle=1;align=center;verticalAlign=top;childLayout=stackLayout;horizontal=1;startSize=26;horizontalStack=0;resizeParent=1;resizeParentMax=0;resizeLast=0;collapsible=1;marginBottom=0;" parent="ytTgHxQCcFlKiNWetzWb-1" vertex="1">
                    <mxGeometry x="862" y="388" width="210" height="268" as="geometry">
                        <mxRectangle x="787.5" y="381" width="104" height="26" as="alternateBounds"/>
                    </mxGeometry>
                </mxCell>
                <mxCell id="EKAYYWvWm1fuc86S0WPc-8" value="+ properties: object" style="text;strokeColor=none;fillColor=none;align=left;verticalAlign=top;spacingLeft=4;spacingRight=4;overflow=hidden;rotatable=0;points=[[0,0.5],[1,0.5]];portConstraint=eastwest;glass=0;" parent="ytTgHxQCcFlKiNWetzWb-27" vertex="1">
                    <mxGeometry y="26" width="210" height="26" as="geometry"/>
                </mxCell>
                <mxCell id="fwen-o8JYTCnN6Gq7A2M-19" value="+ projection: string" style="text;strokeColor=none;fillColor=none;align=left;verticalAlign=top;spacingLeft=4;spacingRight=4;overflow=hidden;rotatable=0;points=[[0,0.5],[1,0.5]];portConstraint=eastwest;glass=0;" parent="ytTgHxQCcFlKiNWetzWb-27" vertex="1">
                    <mxGeometry y="52" width="210" height="26" as="geometry"/>
                </mxCell>
                <mxCell id="u6JIYjCL-i79QRXBYQK0-0" value="+ style: style" style="text;strokeColor=none;fillColor=none;align=left;verticalAlign=top;spacingLeft=4;spacingRight=4;overflow=hidden;rotatable=0;points=[[0,0.5],[1,0.5]];portConstraint=eastwest;glass=0;" parent="ytTgHxQCcFlKiNWetzWb-27" vertex="1">
                    <mxGeometry y="78" width="210" height="26" as="geometry"/>
                </mxCell>
                <mxCell id="fwen-o8JYTCnN6Gq7A2M-20" value="" style="line;strokeWidth=1;fillColor=none;align=left;verticalAlign=middle;spacingTop=-1;spacingLeft=3;spacingRight=3;rotatable=0;labelPosition=right;points=[];portConstraint=eastwest;strokeColor=inherit;glass=0;" parent="ytTgHxQCcFlKiNWetzWb-27" vertex="1">
                    <mxGeometry y="104" width="210" height="8" as="geometry"/>
                </mxCell>
                <mxCell id="fwen-o8JYTCnN6Gq7A2M-21" value="+ addProperty(propertyName):" style="text;strokeColor=none;fillColor=none;align=left;verticalAlign=top;spacingLeft=4;spacingRight=4;overflow=hidden;rotatable=0;points=[[0,0.5],[1,0.5]];portConstraint=eastwest;glass=0;" parent="ytTgHxQCcFlKiNWetzWb-27" vertex="1">
                    <mxGeometry y="112" width="210" height="26" as="geometry"/>
                </mxCell>
                <mxCell id="EKAYYWvWm1fuc86S0WPc-7" value="+ removeProperty(propertyName):" style="text;strokeColor=none;fillColor=none;align=left;verticalAlign=top;spacingLeft=4;spacingRight=4;overflow=hidden;rotatable=0;points=[[0,0.5],[1,0.5]];portConstraint=eastwest;glass=0;" parent="ytTgHxQCcFlKiNWetzWb-27" vertex="1">
                    <mxGeometry y="138" width="210" height="26" as="geometry"/>
                </mxCell>
                <mxCell id="EKAYYWvWm1fuc86S0WPc-1" value="+ setPropertyName(propertyName):" style="text;strokeColor=none;fillColor=none;align=left;verticalAlign=top;spacingLeft=4;spacingRight=4;overflow=hidden;rotatable=0;points=[[0,0.5],[1,0.5]];portConstraint=eastwest;glass=0;" parent="ytTgHxQCcFlKiNWetzWb-27" vertex="1">
                    <mxGeometry y="164" width="210" height="26" as="geometry"/>
                </mxCell>
                <mxCell id="EKAYYWvWm1fuc86S0WPc-4" value="+ exportLayer({format, projection}):" style="text;strokeColor=none;fillColor=none;align=left;verticalAlign=top;spacingLeft=4;spacingRight=4;overflow=hidden;rotatable=0;points=[[0,0.5],[1,0.5]];portConstraint=eastwest;glass=0;" parent="ytTgHxQCcFlKiNWetzWb-27" vertex="1">
                    <mxGeometry y="190" width="210" height="26" as="geometry"/>
                </mxCell>
                <mxCell id="EKAYYWvWm1fuc86S0WPc-6" value="+ setStyle(style):" style="text;strokeColor=none;fillColor=none;align=left;verticalAlign=top;spacingLeft=4;spacingRight=4;overflow=hidden;rotatable=0;points=[[0,0.5],[1,0.5]];portConstraint=eastwest;glass=0;" parent="ytTgHxQCcFlKiNWetzWb-27" vertex="1">
                    <mxGeometry y="216" width="210" height="26" as="geometry"/>
                </mxCell>
                <mxCell id="u6JIYjCL-i79QRXBYQK0-13" value="+ featureCount()" style="text;strokeColor=none;fillColor=none;align=left;verticalAlign=top;spacingLeft=4;spacingRight=4;overflow=hidden;rotatable=0;points=[[0,0.5],[1,0.5]];portConstraint=eastwest;glass=0;" parent="ytTgHxQCcFlKiNWetzWb-27" vertex="1">
                    <mxGeometry y="242" width="210" height="26" as="geometry"/>
                </mxCell>
                <mxCell id="ytTgHxQCcFlKiNWetzWb-32" value="Library" style="swimlane;fontStyle=1;align=center;verticalAlign=top;childLayout=stackLayout;horizontal=1;startSize=26;horizontalStack=0;resizeParent=1;resizeParentMax=0;resizeLast=0;collapsible=1;marginBottom=0;" parent="ytTgHxQCcFlKiNWetzWb-1" vertex="1">
                    <mxGeometry x="364" y="49" width="160" height="242" as="geometry">
                        <mxRectangle x="375" y="32" width="102" height="26" as="alternateBounds"/>
                    </mxGeometry>
                </mxCell>
                <mxCell id="fsvj333_CLVV3jNt5_As-4" value="+ baseLayers: baseLayer" style="text;strokeColor=none;fillColor=none;align=left;verticalAlign=top;spacingLeft=4;spacingRight=4;overflow=hidden;rotatable=0;points=[[0,0.5],[1,0.5]];portConstraint=eastwest;glass=0;" parent="ytTgHxQCcFlKiNWetzWb-32" vertex="1">
                    <mxGeometry y="26" width="160" height="26" as="geometry"/>
                </mxCell>
                <mxCell id="TDWLrFqgMPgSTwfv8utz-0" value="+ layers: layer" style="text;strokeColor=none;fillColor=none;align=left;verticalAlign=top;spacingLeft=4;spacingRight=4;overflow=hidden;rotatable=0;points=[[0,0.5],[1,0.5]];portConstraint=eastwest;glass=0;" parent="ytTgHxQCcFlKiNWetzWb-32" vertex="1">
                    <mxGeometry y="52" width="160" height="26" as="geometry"/>
                </mxCell>
                <mxCell id="fsvj333_CLVV3jNt5_As-5" value="+ layerGroups: layerGroup" style="text;strokeColor=none;fillColor=none;align=left;verticalAlign=top;spacingLeft=4;spacingRight=4;overflow=hidden;rotatable=0;points=[[0,0.5],[1,0.5]];portConstraint=eastwest;glass=0;" parent="ytTgHxQCcFlKiNWetzWb-32" vertex="1">
                    <mxGeometry y="78" width="160" height="26" as="geometry"/>
                </mxCell>
                <mxCell id="EKAYYWvWm1fuc86S0WPc-0" value="+ styles: layerStyle" style="text;strokeColor=none;fillColor=none;align=left;verticalAlign=top;spacingLeft=4;spacingRight=4;overflow=hidden;rotatable=0;points=[[0,0.5],[1,0.5]];portConstraint=eastwest;glass=0;" parent="ytTgHxQCcFlKiNWetzWb-32" vertex="1">
                    <mxGeometry y="104" width="160" height="26" as="geometry"/>
                </mxCell>
                <mxCell id="fsvj333_CLVV3jNt5_As-6" value="+ sources: source" style="text;strokeColor=none;fillColor=none;align=left;verticalAlign=top;spacingLeft=4;spacingRight=4;overflow=hidden;rotatable=0;points=[[0,0.5],[1,0.5]];portConstraint=eastwest;glass=0;" parent="ytTgHxQCcFlKiNWetzWb-32" vertex="1">
                    <mxGeometry y="130" width="160" height="26" as="geometry"/>
                </mxCell>
                <mxCell id="TDWLrFqgMPgSTwfv8utz-1" value="" style="line;strokeWidth=1;fillColor=none;align=left;verticalAlign=middle;spacingTop=-1;spacingLeft=3;spacingRight=3;rotatable=0;labelPosition=right;points=[];portConstraint=eastwest;strokeColor=inherit;glass=0;" parent="ytTgHxQCcFlKiNWetzWb-32" vertex="1">
                    <mxGeometry y="156" width="160" height="8" as="geometry"/>
                </mxCell>
                <mxCell id="LsL92HqbbHLOXvHKX6SR-48" value="+ add(element):" style="text;strokeColor=none;fillColor=none;align=left;verticalAlign=top;spacingLeft=4;spacingRight=4;overflow=hidden;rotatable=0;points=[[0,0.5],[1,0.5]];portConstraint=eastwest;" parent="ytTgHxQCcFlKiNWetzWb-32" vertex="1">
                    <mxGeometry y="164" width="160" height="26" as="geometry"/>
                </mxCell>
                <mxCell id="LsL92HqbbHLOXvHKX6SR-49" value="+ onEach(function):" style="text;strokeColor=none;fillColor=none;align=left;verticalAlign=top;spacingLeft=4;spacingRight=4;overflow=hidden;rotatable=0;points=[[0,0.5],[1,0.5]];portConstraint=eastwest;" parent="ytTgHxQCcFlKiNWetzWb-32" vertex="1">
                    <mxGeometry y="190" width="160" height="26" as="geometry"/>
                </mxCell>
                <mxCell id="LsL92HqbbHLOXvHKX6SR-14" value="+ remove(element):" style="text;strokeColor=none;fillColor=none;align=left;verticalAlign=top;spacingLeft=4;spacingRight=4;overflow=hidden;rotatable=0;points=[[0,0.5],[1,0.5]];portConstraint=eastwest;" parent="ytTgHxQCcFlKiNWetzWb-32" vertex="1">
                    <mxGeometry y="216" width="160" height="26" as="geometry"/>
                </mxCell>
                <mxCell id="ytTgHxQCcFlKiNWetzWb-33" style="edgeStyle=none;html=1;endArrow=diamondThin;endFill=1;endSize=14;" parent="ytTgHxQCcFlKiNWetzWb-1" source="ytTgHxQCcFlKiNWetzWb-42" target="ytTgHxQCcFlKiNWetzWb-12" edge="1">
                    <mxGeometry relative="1" as="geometry"/>
                </mxCell>
                <mxCell id="ytTgHxQCcFlKiNWetzWb-34" value="1" style="edgeLabel;html=1;align=center;verticalAlign=middle;resizable=0;points=[];" parent="ytTgHxQCcFlKiNWetzWb-33" vertex="1" connectable="0">
                    <mxGeometry x="-0.4204" y="2" relative="1" as="geometry">
                        <mxPoint x="-25" y="7" as="offset"/>
                    </mxGeometry>
                </mxCell>
                <mxCell id="ytTgHxQCcFlKiNWetzWb-35" value="1" style="edgeLabel;html=1;align=center;verticalAlign=middle;resizable=0;points=[];" parent="ytTgHxQCcFlKiNWetzWb-33" vertex="1" connectable="0">
                    <mxGeometry x="0.8046" y="1" relative="1" as="geometry">
                        <mxPoint x="-6" y="14" as="offset"/>
                    </mxGeometry>
                </mxCell>
                <mxCell id="4MEzG36RsoRaRq--r3LH-0" style="edgeStyle=none;html=1;endArrow=diamondThin;endFill=1;endSize=16;" parent="ytTgHxQCcFlKiNWetzWb-1" source="ytTgHxQCcFlKiNWetzWb-42" target="ytTgHxQCcFlKiNWetzWb-5" edge="1">
                    <mxGeometry relative="1" as="geometry"/>
                </mxCell>
                <mxCell id="ytTgHxQCcFlKiNWetzWb-42" value="Metadata" style="swimlane;fontStyle=1;align=center;verticalAlign=top;childLayout=stackLayout;horizontal=1;startSize=26;horizontalStack=0;resizeParent=1;resizeParentMax=0;resizeLast=0;collapsible=1;marginBottom=0;" parent="ytTgHxQCcFlKiNWetzWb-1" vertex="1">
                    <mxGeometry x="51" y="304" width="160" height="242" as="geometry">
                        <mxRectangle x="105" y="191" width="102" height="26" as="alternateBounds"/>
                    </mxGeometry>
                </mxCell>
                <mxCell id="mQnTIvynhWTz8QyYMG3Q-3" value="+ entity: entity" style="text;strokeColor=none;fillColor=none;align=left;verticalAlign=top;spacingLeft=4;spacingRight=4;overflow=hidden;rotatable=0;points=[[0,0.5],[1,0.5]];portConstraint=eastwest;" parent="ytTgHxQCcFlKiNWetzWb-42" vertex="1">
                    <mxGeometry y="26" width="160" height="26" as="geometry"/>
                </mxCell>
                <mxCell id="LsL92HqbbHLOXvHKX6SR-6" value="+ version: string" style="text;strokeColor=none;fillColor=none;align=left;verticalAlign=top;spacingLeft=4;spacingRight=4;overflow=hidden;rotatable=0;points=[[0,0.5],[1,0.5]];portConstraint=eastwest;" parent="ytTgHxQCcFlKiNWetzWb-42" vertex="1">
                    <mxGeometry y="52" width="160" height="26" as="geometry"/>
                </mxCell>
                <mxCell id="LsL92HqbbHLOXvHKX6SR-5" value="+ date: string" style="text;strokeColor=none;fillColor=none;align=left;verticalAlign=top;spacingLeft=4;spacingRight=4;overflow=hidden;rotatable=0;points=[[0,0.5],[1,0.5]];portConstraint=eastwest;" parent="ytTgHxQCcFlKiNWetzWb-42" vertex="1">
                    <mxGeometry y="78" width="160" height="26" as="geometry"/>
                </mxCell>
                <mxCell id="LsL92HqbbHLOXvHKX6SR-15" value="+ abstract: string" style="text;strokeColor=none;fillColor=none;align=left;verticalAlign=top;spacingLeft=4;spacingRight=4;overflow=hidden;rotatable=0;points=[[0,0.5],[1,0.5]];portConstraint=eastwest;" parent="ytTgHxQCcFlKiNWetzWb-42" vertex="1">
                    <mxGeometry y="104" width="160" height="26" as="geometry"/>
                </mxCell>
                <mxCell id="LsL92HqbbHLOXvHKX6SR-16" value="+ status: string" style="text;strokeColor=none;fillColor=none;align=left;verticalAlign=top;spacingLeft=4;spacingRight=4;overflow=hidden;rotatable=0;points=[[0,0.5],[1,0.5]];portConstraint=eastwest;" parent="ytTgHxQCcFlKiNWetzWb-42" vertex="1">
                    <mxGeometry y="130" width="160" height="26" as="geometry"/>
                </mxCell>
                <mxCell id="mQnTIvynhWTz8QyYMG3Q-6" value="+ keywords: arrray" style="text;strokeColor=none;fillColor=none;align=left;verticalAlign=top;spacingLeft=4;spacingRight=4;overflow=hidden;rotatable=0;points=[[0,0.5],[1,0.5]];portConstraint=eastwest;" parent="ytTgHxQCcFlKiNWetzWb-42" vertex="1">
                    <mxGeometry y="156" width="160" height="26" as="geometry"/>
                </mxCell>
                <mxCell id="LsL92HqbbHLOXvHKX6SR-21" value="+ constraints: string" style="text;strokeColor=none;fillColor=none;align=left;verticalAlign=top;spacingLeft=4;spacingRight=4;overflow=hidden;rotatable=0;points=[[0,0.5],[1,0.5]];portConstraint=eastwest;" parent="ytTgHxQCcFlKiNWetzWb-42" vertex="1">
                    <mxGeometry y="182" width="160" height="26" as="geometry"/>
                </mxCell>
                <mxCell id="LsL92HqbbHLOXvHKX6SR-11" value="" style="line;strokeWidth=1;fillColor=none;align=left;verticalAlign=middle;spacingTop=-1;spacingLeft=3;spacingRight=3;rotatable=0;labelPosition=right;points=[];portConstraint=eastwest;strokeColor=inherit;glass=0;" parent="ytTgHxQCcFlKiNWetzWb-42" vertex="1">
                    <mxGeometry y="208" width="160" height="8" as="geometry"/>
                </mxCell>
                <mxCell id="LsL92HqbbHLOXvHKX6SR-13" value="+ update()" style="text;strokeColor=none;fillColor=none;align=left;verticalAlign=top;spacingLeft=4;spacingRight=4;overflow=hidden;rotatable=0;points=[[0,0.5],[1,0.5]];portConstraint=eastwest;" parent="ytTgHxQCcFlKiNWetzWb-42" vertex="1">
                    <mxGeometry y="216" width="160" height="26" as="geometry"/>
                </mxCell>
                <mxCell id="ytTgHxQCcFlKiNWetzWb-47" style="edgeStyle=none;html=1;endArrow=diamondThin;endFill=1;endSize=18;" parent="ytTgHxQCcFlKiNWetzWb-1" source="ytTgHxQCcFlKiNWetzWb-53" target="ytTgHxQCcFlKiNWetzWb-27" edge="1">
                    <mxGeometry relative="1" as="geometry"/>
                </mxCell>
                <mxCell id="ytTgHxQCcFlKiNWetzWb-48" value="1" style="edgeLabel;html=1;align=center;verticalAlign=middle;resizable=0;points=[];" parent="ytTgHxQCcFlKiNWetzWb-47" vertex="1" connectable="0">
                    <mxGeometry x="-0.2099" y="1" relative="1" as="geometry">
                        <mxPoint x="12" y="-24" as="offset"/>
                    </mxGeometry>
                </mxCell>
                <mxCell id="ytTgHxQCcFlKiNWetzWb-49" value="1" style="edgeLabel;html=1;align=center;verticalAlign=middle;resizable=0;points=[];" parent="ytTgHxQCcFlKiNWetzWb-47" vertex="1" connectable="0">
                    <mxGeometry x="0.5924" y="1" relative="1" as="geometry">
                        <mxPoint x="12" as="offset"/>
                    </mxGeometry>
                </mxCell>
                <mxCell id="ytTgHxQCcFlKiNWetzWb-50" style="edgeStyle=none;html=1;endArrow=diamondThin;endFill=0;endSize=18;" parent="ytTgHxQCcFlKiNWetzWb-1" source="ytTgHxQCcFlKiNWetzWb-53" target="ytTgHxQCcFlKiNWetzWb-32" edge="1">
                    <mxGeometry relative="1" as="geometry">
                        <mxPoint x="522" y="76" as="targetPoint"/>
                    </mxGeometry>
                </mxCell>
                <mxCell id="ytTgHxQCcFlKiNWetzWb-51" value="1" style="edgeLabel;html=1;align=center;verticalAlign=middle;resizable=0;points=[];" parent="ytTgHxQCcFlKiNWetzWb-50" vertex="1" connectable="0">
                    <mxGeometry x="0.5821" y="1" relative="1" as="geometry">
                        <mxPoint x="-47" y="-27" as="offset"/>
                    </mxGeometry>
                </mxCell>
                <mxCell id="ytTgHxQCcFlKiNWetzWb-52" value="*" style="edgeLabel;html=1;align=center;verticalAlign=middle;resizable=0;points=[];" parent="ytTgHxQCcFlKiNWetzWb-50" vertex="1" connectable="0">
                    <mxGeometry x="-0.9007" y="-1" relative="1" as="geometry">
                        <mxPoint x="-11" y="-19" as="offset"/>
                    </mxGeometry>
                </mxCell>
                <mxCell id="ytTgHxQCcFlKiNWetzWb-53" value="LayerStyle" style="swimlane;fontStyle=1;align=center;verticalAlign=top;childLayout=stackLayout;horizontal=1;startSize=26;horizontalStack=0;resizeParent=1;resizeParentMax=0;resizeLast=0;collapsible=1;marginBottom=0;" parent="ytTgHxQCcFlKiNWetzWb-1" vertex="1">
                    <mxGeometry x="887" y="101" width="160" height="190" as="geometry">
                        <mxRectangle x="889" y="185" width="104" height="26" as="alternateBounds"/>
                    </mxGeometry>
                </mxCell>
                <mxCell id="fwen-o8JYTCnN6Gq7A2M-22" value="+ defaultStyle: object" style="text;strokeColor=none;fillColor=none;align=left;verticalAlign=top;spacingLeft=4;spacingRight=4;overflow=hidden;rotatable=0;points=[[0,0.5],[1,0.5]];portConstraint=eastwest;glass=0;" parent="ytTgHxQCcFlKiNWetzWb-53" vertex="1">
                    <mxGeometry y="26" width="160" height="26" as="geometry"/>
                </mxCell>
                <mxCell id="u6JIYjCL-i79QRXBYQK0-11" value="+ options: object" style="text;strokeColor=none;fillColor=none;align=left;verticalAlign=top;spacingLeft=4;spacingRight=4;overflow=hidden;rotatable=0;points=[[0,0.5],[1,0.5]];portConstraint=eastwest;glass=0;" parent="ytTgHxQCcFlKiNWetzWb-53" vertex="1">
                    <mxGeometry y="52" width="160" height="26" as="geometry"/>
                </mxCell>
                <mxCell id="fwen-o8JYTCnN6Gq7A2M-23" value="" style="line;strokeWidth=1;fillColor=none;align=left;verticalAlign=middle;spacingTop=-1;spacingLeft=3;spacingRight=3;rotatable=0;labelPosition=right;points=[];portConstraint=eastwest;strokeColor=inherit;glass=0;" parent="ytTgHxQCcFlKiNWetzWb-53" vertex="1">
                    <mxGeometry y="78" width="160" height="8" as="geometry"/>
                </mxCell>
                <mxCell id="fwen-o8JYTCnN6Gq7A2M-24" value="+ getJSON(): string" style="text;strokeColor=none;fillColor=none;align=left;verticalAlign=top;spacingLeft=4;spacingRight=4;overflow=hidden;rotatable=0;points=[[0,0.5],[1,0.5]];portConstraint=eastwest;glass=0;" parent="ytTgHxQCcFlKiNWetzWb-53" vertex="1">
                    <mxGeometry y="86" width="160" height="26" as="geometry"/>
                </mxCell>
                <mxCell id="LsL92HqbbHLOXvHKX6SR-1" value="+ getSLD(): string" style="text;strokeColor=none;fillColor=none;align=left;verticalAlign=top;spacingLeft=4;spacingRight=4;overflow=hidden;rotatable=0;points=[[0,0.5],[1,0.5]];portConstraint=eastwest;glass=0;" parent="ytTgHxQCcFlKiNWetzWb-53" vertex="1">
                    <mxGeometry y="112" width="160" height="26" as="geometry"/>
                </mxCell>
                <mxCell id="LsL92HqbbHLOXvHKX6SR-2" value="+ getYML(): string" style="text;strokeColor=none;fillColor=none;align=left;verticalAlign=top;spacingLeft=4;spacingRight=4;overflow=hidden;rotatable=0;points=[[0,0.5],[1,0.5]];portConstraint=eastwest;glass=0;" parent="ytTgHxQCcFlKiNWetzWb-53" vertex="1">
                    <mxGeometry y="138" width="160" height="26" as="geometry"/>
                </mxCell>
                <mxCell id="LsL92HqbbHLOXvHKX6SR-3" value="+ getQML(): string" style="text;strokeColor=none;fillColor=none;align=left;verticalAlign=top;spacingLeft=4;spacingRight=4;overflow=hidden;rotatable=0;points=[[0,0.5],[1,0.5]];portConstraint=eastwest;glass=0;" parent="ytTgHxQCcFlKiNWetzWb-53" vertex="1">
                    <mxGeometry y="164" width="160" height="26" as="geometry"/>
                </mxCell>
                <mxCell id="LsL92HqbbHLOXvHKX6SR-40" style="edgeStyle=none;html=1;endArrow=diamondThin;endFill=0;endSize=18;" parent="ytTgHxQCcFlKiNWetzWb-1" source="LsL92HqbbHLOXvHKX6SR-24" target="ytTgHxQCcFlKiNWetzWb-42" edge="1">
                    <mxGeometry relative="1" as="geometry"/>
                </mxCell>
                <mxCell id="LsL92HqbbHLOXvHKX6SR-41" value="1" style="edgeLabel;html=1;align=center;verticalAlign=middle;resizable=0;points=[];" parent="LsL92HqbbHLOXvHKX6SR-40" vertex="1" connectable="0">
                    <mxGeometry x="-0.5394" y="2" relative="1" as="geometry">
                        <mxPoint x="-7" y="-18" as="offset"/>
                    </mxGeometry>
                </mxCell>
                <mxCell id="LsL92HqbbHLOXvHKX6SR-42" value="*" style="edgeLabel;html=1;align=center;verticalAlign=middle;resizable=0;points=[];" parent="LsL92HqbbHLOXvHKX6SR-40" vertex="1" connectable="0">
                    <mxGeometry x="0.3923" y="-1" relative="1" as="geometry">
                        <mxPoint x="11" y="-14" as="offset"/>
                    </mxGeometry>
                </mxCell>
                <mxCell id="LsL92HqbbHLOXvHKX6SR-24" value="Entity" style="swimlane;fontStyle=1;align=center;verticalAlign=top;childLayout=stackLayout;horizontal=1;startSize=26;horizontalStack=0;resizeParent=1;resizeParentMax=0;resizeLast=0;collapsible=1;marginBottom=0;" parent="ytTgHxQCcFlKiNWetzWb-1" vertex="1">
                    <mxGeometry x="-203" y="187" width="160" height="112" as="geometry">
                        <mxRectangle x="105" y="191" width="102" height="26" as="alternateBounds"/>
                    </mxGeometry>
                </mxCell>
                <mxCell id="LsL92HqbbHLOXvHKX6SR-25" value="+ name: string" style="text;strokeColor=none;fillColor=none;align=left;verticalAlign=top;spacingLeft=4;spacingRight=4;overflow=hidden;rotatable=0;points=[[0,0.5],[1,0.5]];portConstraint=eastwest;" parent="LsL92HqbbHLOXvHKX6SR-24" vertex="1">
                    <mxGeometry y="26" width="160" height="26" as="geometry"/>
                </mxCell>
                <mxCell id="LsL92HqbbHLOXvHKX6SR-32" value="+ contact: string" style="text;strokeColor=none;fillColor=none;align=left;verticalAlign=top;spacingLeft=4;spacingRight=4;overflow=hidden;rotatable=0;points=[[0,0.5],[1,0.5]];portConstraint=eastwest;" parent="LsL92HqbbHLOXvHKX6SR-24" vertex="1">
                    <mxGeometry y="52" width="160" height="26" as="geometry"/>
                </mxCell>
                <mxCell id="LsL92HqbbHLOXvHKX6SR-36" value="+ services: service" style="text;strokeColor=none;fillColor=none;align=left;verticalAlign=top;spacingLeft=4;spacingRight=4;overflow=hidden;rotatable=0;points=[[0,0.5],[1,0.5]];portConstraint=eastwest;" parent="LsL92HqbbHLOXvHKX6SR-24" vertex="1">
                    <mxGeometry y="78" width="160" height="26" as="geometry"/>
                </mxCell>
                <mxCell id="LsL92HqbbHLOXvHKX6SR-33" value="" style="line;strokeWidth=1;fillColor=none;align=left;verticalAlign=middle;spacingTop=-1;spacingLeft=3;spacingRight=3;rotatable=0;labelPosition=right;points=[];portConstraint=eastwest;strokeColor=inherit;glass=0;" parent="LsL92HqbbHLOXvHKX6SR-24" vertex="1">
                    <mxGeometry y="104" width="160" height="8" as="geometry"/>
                </mxCell>
            </root>
        </mxGraphModel>
    </diagram>
    <diagram id="zKj1nWsVdqE3z-n9kn48" name="UI">
        <mxGraphModel dx="1189" dy="659" grid="0" gridSize="10" guides="1" tooltips="1" connect="1" arrows="1" fold="1" page="1" pageScale="1" pageWidth="1169" pageHeight="827" math="0" shadow="0">
            <root>
                <mxCell id="8P5OABlq8EOVzUHR2hVs-0"/>
                <mxCell id="8P5OABlq8EOVzUHR2hVs-1" parent="8P5OABlq8EOVzUHR2hVs-0"/>
                <mxCell id="8P5OABlq8EOVzUHR2hVs-4" value="" style="edgeStyle=none;html=1;fontSize=15;" parent="8P5OABlq8EOVzUHR2hVs-1" edge="1">
                    <mxGeometry relative="1" as="geometry">
                        <mxPoint x="170" y="80" as="sourcePoint"/>
                    </mxGeometry>
                </mxCell>
                <mxCell id="YPBZKEuKwnMEtHhW41pT-0" value="Item" style="swimlane;fontStyle=3;align=center;verticalAlign=top;childLayout=stackLayout;horizontal=1;startSize=26;horizontalStack=0;resizeParent=1;resizeParentMax=0;resizeLast=0;collapsible=1;marginBottom=0;" parent="8P5OABlq8EOVzUHR2hVs-1" vertex="1">
                    <mxGeometry x="299" y="394" width="207" height="190" as="geometry">
                        <mxRectangle x="338" y="53" width="67" height="26" as="alternateBounds"/>
                    </mxGeometry>
                </mxCell>
                <mxCell id="YPBZKEuKwnMEtHhW41pT-1" value="+ id: string" style="text;strokeColor=none;fillColor=none;align=left;verticalAlign=top;spacingLeft=4;spacingRight=4;overflow=hidden;rotatable=0;points=[[0,0.5],[1,0.5]];portConstraint=eastwest;" parent="YPBZKEuKwnMEtHhW41pT-0" vertex="1">
                    <mxGeometry y="26" width="207" height="26" as="geometry"/>
                </mxCell>
                <mxCell id="4pYXPIBK8xEcpR5veoxq-3" value="+ name: string" style="text;strokeColor=none;fillColor=none;align=left;verticalAlign=top;spacingLeft=4;spacingRight=4;overflow=hidden;rotatable=0;points=[[0,0.5],[1,0.5]];portConstraint=eastwest;" parent="YPBZKEuKwnMEtHhW41pT-0" vertex="1">
                    <mxGeometry y="52" width="207" height="26" as="geometry"/>
                </mxCell>
                <mxCell id="YPBZKEuKwnMEtHhW41pT-13" value="+ content: object" style="text;strokeColor=none;fillColor=none;align=left;verticalAlign=top;spacingLeft=4;spacingRight=4;overflow=hidden;rotatable=0;points=[[0,0.5],[1,0.5]];portConstraint=eastwest;" parent="YPBZKEuKwnMEtHhW41pT-0" vertex="1">
                    <mxGeometry y="78" width="207" height="26" as="geometry"/>
                </mxCell>
                <mxCell id="YPBZKEuKwnMEtHhW41pT-3" value="" style="line;strokeWidth=1;fillColor=none;align=left;verticalAlign=middle;spacingTop=-1;spacingLeft=3;spacingRight=3;rotatable=0;labelPosition=right;points=[];portConstraint=eastwest;" parent="YPBZKEuKwnMEtHhW41pT-0" vertex="1">
                    <mxGeometry y="104" width="207" height="8" as="geometry"/>
                </mxCell>
                <mxCell id="YPBZKEuKwnMEtHhW41pT-10" value="+ create() " style="text;strokeColor=none;fillColor=none;align=left;verticalAlign=top;spacingLeft=4;spacingRight=4;overflow=hidden;rotatable=0;points=[[0,0.5],[1,0.5]];portConstraint=eastwest;" parent="YPBZKEuKwnMEtHhW41pT-0" vertex="1">
                    <mxGeometry y="112" width="207" height="26" as="geometry"/>
                </mxCell>
                <mxCell id="YPBZKEuKwnMEtHhW41pT-9" value="+ addTo() " style="text;strokeColor=none;fillColor=none;align=left;verticalAlign=top;spacingLeft=4;spacingRight=4;overflow=hidden;rotatable=0;points=[[0,0.5],[1,0.5]];portConstraint=eastwest;" parent="YPBZKEuKwnMEtHhW41pT-0" vertex="1">
                    <mxGeometry y="138" width="207" height="26" as="geometry"/>
                </mxCell>
                <mxCell id="YPBZKEuKwnMEtHhW41pT-8" value="+ removeFrom(object)" style="text;strokeColor=none;fillColor=none;align=left;verticalAlign=top;spacingLeft=4;spacingRight=4;overflow=hidden;rotatable=0;points=[[0,0.5],[1,0.5]];portConstraint=eastwest;" parent="YPBZKEuKwnMEtHhW41pT-0" vertex="1">
                    <mxGeometry y="164" width="207" height="26" as="geometry"/>
                </mxCell>
                <mxCell id="YPBZKEuKwnMEtHhW41pT-14" value="Menu" style="swimlane;fontStyle=1;align=center;verticalAlign=top;childLayout=stackLayout;horizontal=1;startSize=26;horizontalStack=0;resizeParent=1;resizeParentMax=0;resizeLast=0;collapsible=1;marginBottom=0;" parent="8P5OABlq8EOVzUHR2hVs-1" vertex="1">
                    <mxGeometry x="58" y="394" width="198" height="268" as="geometry"/>
                </mxCell>
                <mxCell id="YPBZKEuKwnMEtHhW41pT-25" value="+ id: string" style="text;strokeColor=none;fillColor=none;align=left;verticalAlign=top;spacingLeft=4;spacingRight=4;overflow=hidden;rotatable=0;points=[[0,0.5],[1,0.5]];portConstraint=eastwest;" parent="YPBZKEuKwnMEtHhW41pT-14" vertex="1">
                    <mxGeometry y="26" width="198" height="26" as="geometry"/>
                </mxCell>
                <mxCell id="YPBZKEuKwnMEtHhW41pT-26" value="+ name: string" style="text;strokeColor=none;fillColor=none;align=left;verticalAlign=top;spacingLeft=4;spacingRight=4;overflow=hidden;rotatable=0;points=[[0,0.5],[1,0.5]];portConstraint=eastwest;" parent="YPBZKEuKwnMEtHhW41pT-14" vertex="1">
                    <mxGeometry y="52" width="198" height="26" as="geometry"/>
                </mxCell>
                <mxCell id="YPBZKEuKwnMEtHhW41pT-15" value="+ items: object" style="text;strokeColor=none;fillColor=none;align=left;verticalAlign=top;spacingLeft=4;spacingRight=4;overflow=hidden;rotatable=0;points=[[0,0.5],[1,0.5]];portConstraint=eastwest;" parent="YPBZKEuKwnMEtHhW41pT-14" vertex="1">
                    <mxGeometry y="78" width="198" height="26" as="geometry"/>
                </mxCell>
                <mxCell id="YPBZKEuKwnMEtHhW41pT-18" value="" style="line;strokeWidth=1;fillColor=none;align=left;verticalAlign=middle;spacingTop=-1;spacingLeft=3;spacingRight=3;rotatable=0;labelPosition=right;points=[];portConstraint=eastwest;strokeColor=inherit;" parent="YPBZKEuKwnMEtHhW41pT-14" vertex="1">
                    <mxGeometry y="104" width="198" height="8" as="geometry"/>
                </mxCell>
                <mxCell id="YPBZKEuKwnMEtHhW41pT-19" value="+ sortBy(value): object" style="text;strokeColor=none;fillColor=none;align=left;verticalAlign=top;spacingLeft=4;spacingRight=4;overflow=hidden;rotatable=0;points=[[0,0.5],[1,0.5]];portConstraint=eastwest;" parent="YPBZKEuKwnMEtHhW41pT-14" vertex="1">
                    <mxGeometry y="112" width="198" height="26" as="geometry"/>
                </mxCell>
                <mxCell id="YPBZKEuKwnMEtHhW41pT-20" value="+ onEach(function)" style="text;strokeColor=none;fillColor=none;align=left;verticalAlign=top;spacingLeft=4;spacingRight=4;overflow=hidden;rotatable=0;points=[[0,0.5],[1,0.5]];portConstraint=eastwest;" parent="YPBZKEuKwnMEtHhW41pT-14" vertex="1">
                    <mxGeometry y="138" width="198" height="26" as="geometry"/>
                </mxCell>
                <mxCell id="YPBZKEuKwnMEtHhW41pT-21" value="+ disableAll()" style="text;strokeColor=none;fillColor=none;align=left;verticalAlign=top;spacingLeft=4;spacingRight=4;overflow=hidden;rotatable=0;points=[[0,0.5],[1,0.5]];portConstraint=eastwest;" parent="YPBZKEuKwnMEtHhW41pT-14" vertex="1">
                    <mxGeometry y="164" width="198" height="26" as="geometry"/>
                </mxCell>
                <mxCell id="YPBZKEuKwnMEtHhW41pT-22" value="+ activateAll()" style="text;strokeColor=none;fillColor=none;align=left;verticalAlign=top;spacingLeft=4;spacingRight=4;overflow=hidden;rotatable=0;points=[[0,0.5],[1,0.5]];portConstraint=eastwest;" parent="YPBZKEuKwnMEtHhW41pT-14" vertex="1">
                    <mxGeometry y="190" width="198" height="26" as="geometry"/>
                </mxCell>
                <mxCell id="YPBZKEuKwnMEtHhW41pT-23" value="+ reset(): object" style="text;strokeColor=none;fillColor=none;align=left;verticalAlign=top;spacingLeft=4;spacingRight=4;overflow=hidden;rotatable=0;points=[[0,0.5],[1,0.5]];portConstraint=eastwest;" parent="YPBZKEuKwnMEtHhW41pT-14" vertex="1">
                    <mxGeometry y="216" width="198" height="26" as="geometry"/>
                </mxCell>
                <mxCell id="YPBZKEuKwnMEtHhW41pT-24" value="+ group(): object" style="text;strokeColor=none;fillColor=none;align=left;verticalAlign=top;spacingLeft=4;spacingRight=4;overflow=hidden;rotatable=0;points=[[0,0.5],[1,0.5]];portConstraint=eastwest;" parent="YPBZKEuKwnMEtHhW41pT-14" vertex="1">
                    <mxGeometry y="242" width="198" height="26" as="geometry"/>
                </mxCell>
            </root>
        </mxGraphModel>
    </diagram>
</mxfile>